HIERARCHY
ROOT Hips
{
	OFFSET	0.00	0.00	0.00
	CHANNELS 6 Xposition Yposition Zposition Zrotation Xrotation Yrotation
	JOINT LeftUpLeg
	{
		OFFSET	 0.126116	-0.014019	-0.065224
		CHANNELS 3 Zrotation Xrotation Yrotation
		JOINT LeftLeg
		{
			OFFSET	 0.000000	 0.000000	 0.569914
			CHANNELS 3 Zrotation Xrotation Yrotation
			JOINT LeftFoot
			{
				OFFSET	 0.000000	 0.000000	 0.544423
				CHANNELS 3 Zrotation Xrotation Yrotation
				JOINT LeftToeBase
				{
					OFFSET	 0.000000	 0.000000	 0.207117
					CHANNELS 3 Zrotation Xrotation Yrotation
					End Site
					{
						OFFSET	 0.000000	 0.000000	 0.207117
					}
				}
			}
		}
	}
	JOINT RightUpLeg
	{
		OFFSET	-0.124023	-0.008373	-0.065224
		CHANNELS 3 Zrotation Xrotation Yrotation
		JOINT RightLeg
		{
			OFFSET	 0.000000	 0.000000	 0.570047
			CHANNELS 3 Zrotation Xrotation Yrotation
			JOINT RightFoot
			{
				OFFSET	 0.000000	 0.000000	 0.544354
				CHANNELS 3 Zrotation Xrotation Yrotation
				JOINT RightToeBase
				{
					OFFSET	 0.000000	 0.000000	 0.207540
					CHANNELS 3 Zrotation Xrotation Yrotation
					End Site
					{
						OFFSET	 0.000000	 0.000000	 0.207540
					}
				}
			}
		}
	}
	JOINT Spine
	{
		OFFSET	 0.000184	-0.007763	 0.117403
		CHANNELS 3 Zrotation Xrotation Yrotation
		JOINT Spine1
		{
			OFFSET	 0.000000	 0.000000	 0.137269
			CHANNELS 3 Zrotation Xrotation Yrotation
			JOINT Spine2
			{
				OFFSET	 0.000000	 0.000000	 0.156879
				CHANNELS 3 Zrotation Xrotation Yrotation
				JOINT LeftShoulder
				{
					OFFSET	 0.080501	-0.002496	 0.160144
					CHANNELS 3 Zrotation Xrotation Yrotation
					JOINT LeftArm
					{
						OFFSET	 0.000000	 0.000000	 0.164363
						CHANNELS 3 Zrotation Xrotation Yrotation
						JOINT LeftForeArm
						{
							OFFSET	 0.000000	 0.000000	 0.364576
							CHANNELS 3 Zrotation Xrotation Yrotation
							JOINT LeftHand
							{
								OFFSET	 0.000000	 0.000000	 0.360812
								CHANNELS 3 Zrotation Xrotation Yrotation
								JOINT LeftHandIndex1
								{
									OFFSET	 0.000000	 0.000000	 0.086006
									CHANNELS 3 Zrotation Xrotation Yrotation
									JOINT LeftHandIndex2
									{
										OFFSET	 0.000000	 0.000000	 0.047236
										CHANNELS 3 Zrotation Xrotation Yrotation
										JOINT LeftHandIndex3
										{
											OFFSET	-0.004284	-0.000551	 0.038166
											CHANNELS 3 Zrotation Xrotation Yrotation
											End Site
											{
												OFFSET	-0.004284	-0.000551	 0.038166
											}
										}
									}
								}
							}
						}
					}
				}
				JOINT Neck
				{
					OFFSET	 0.000000	 0.000000	 0.176489
					CHANNELS 3 Zrotation Xrotation Yrotation
					JOINT Head
					{
						OFFSET	 0.000000	-0.001747	 0.077940
						CHANNELS 3 Zrotation Xrotation Yrotation
						End Site
						{
							OFFSET	 0.000000	-0.001747	 0.077940
						}
					}
				}
				JOINT RightShoulder
				{
					OFFSET	-0.080363	 0.000306	 0.159706
					CHANNELS 3 Zrotation Xrotation Yrotation
					JOINT RightArm
					{
						OFFSET	 0.000000	 0.000000	 0.164196
						CHANNELS 3 Zrotation Xrotation Yrotation
						JOINT RightForeArm
						{
							OFFSET	 0.000000	 0.000000	 0.365611
							CHANNELS 3 Zrotation Xrotation Yrotation
							JOINT RightHand
							{
								OFFSET	 0.000000	 0.000000	 0.360648
								CHANNELS 3 Zrotation Xrotation Yrotation
								JOINT RightHandIndex1
								{
									OFFSET	 0.000000	 0.000000	 0.069977
									CHANNELS 3 Zrotation Xrotation Yrotation
									JOINT RightHandIndex2
									{
										OFFSET	 0.000000	 0.000000	 0.052305
										CHANNELS 3 Zrotation Xrotation Yrotation
										JOINT RightHandIndex3
										{
											OFFSET	 0.009002	-0.000782	 0.042196
											CHANNELS 3 Zrotation Xrotation Yrotation
											End Site
											{
												OFFSET	 0.009002	-0.000782	 0.042196
											}
										}
									}
								}
							}
						}
					}
				}
			}
		}
	}
}
MOTION
Frames:    11
Frame Time: 0.03333334
-0.028794	 0.295585	 1.005973	 0.722330	 33.069710	-6.707151	 76.955560	-75.300090	-116.620700	 6.869823	-72.567540	 6.955067	 72.776290	 70.003430	-88.759390	-2.385832	 28.452790	-0.000001	 62.528840	-87.850600	-112.594800	-18.002190	-75.158670	-12.440600	-34.006760	 72.356590	 63.432310	 2.384659	 28.388700	-0.000001	-12.166940	 14.701230	 2.053331	-2.883215	 18.328380	 4.271504	 1.848189	 2.746599	 1.214373	-99.116530	 68.196010	 156.940900	-0.452512	-11.603080	-45.292220	 4.416638	-1.533905	-7.356447	-35.598460	-16.404340	-21.779740	-2.027600	 6.559038	 9.033609	-5.188889	 0.308190	 3.541030	-5.234859	 0.342567	 0.430617	 0.241734	 16.981740	-5.719434	 3.727711	-24.594670	 0.865158	 97.425180	 64.609590	-159.363100	-7.678032	 6.126737	 58.612300	-17.699430	-6.312928	 31.152970	 19.926210	-16.101990	 17.479020	 1.803333	 3.979147	-15.098590	 4.898592	 3.004813	-9.310344	 5.224449	 0.395017	 2.014677
-0.025036	 0.292745	 1.031378	 0.524683	 31.118290	-5.918078	 64.197040	-72.763580	-130.089500	 5.375916	-69.085370	 5.413160	 70.110020	 70.221770	-85.160280	-2.385832	 28.452790	-0.000001	-5.219680	-84.448040	-178.665700	-16.035650	-71.580010	-10.343820	-33.670440	 72.118930	 62.125590	 2.384659	 28.388700	-0.000001	-22.522030	 14.060220	 1.847371	-2.708822	 18.904120	 3.889023	 2.197603	 0.928766	 0.727165	-98.375790	 68.905580	 158.179000	 0.510856	-7.320521	-46.702190	 9.865270	-3.020059	-9.821033	-37.040920	-16.681500	-23.138360	-2.027600	 6.559038	 9.033609	-5.188889	 0.308190	 3.541030	-5.234859	 0.342567	 0.430617	-0.593212	 10.185070	-3.874189	 3.520437	-18.112970	-0.267594	 97.027560	 64.059560	-160.876400	-9.694933	 6.134840	 56.250400	-20.088920	-10.283440	 37.787980	 20.101430	-15.565560	 19.473120	 1.803333	 3.979147	-15.098590	 4.898592	 3.004813	-9.310344	 5.224449	 0.395017	 2.014677
-0.021054	 0.288756	 1.055401	 0.414219	 29.120490	-5.105721	 55.116390	-69.635350	-139.959500	 4.534313	-65.700380	 4.514140	 67.602740	 70.454610	-81.703370	-2.385833	 28.452760	 0.000004	-16.447250	-79.539540	 171.762400	-14.947590	-67.997210	-9.099837	-32.935620	 72.049000	 60.477170	 2.384659	 28.388700	-0.000001	-30.565640	 13.394110	 1.617488	-2.654234	 19.352880	 3.620064	 2.447190	-1.067305	 0.287003	-97.031160	 70.891910	 159.396900	 1.825757	-2.178267	-48.178600	 14.445280	-4.554803	-11.683060	-38.473370	-16.923890	-25.175820	-2.027600	 6.559038	 9.033609	-5.188889	 0.308190	 3.541030	-5.234859	 0.342567	 0.430617	-1.058969	 2.312270	-2.402832	 3.365972	-10.721140	-1.456657	 96.463830	 64.635510	-161.847100	-11.834780	 8.007767	 54.190890	-22.088890	-14.717610	 43.626950	 19.985510	-15.045510	 20.594220	 1.803333	 3.979147	-15.098590	 4.898592	 3.004813	-9.310344	 5.224449	 0.395017	 2.014677
-0.017356	 0.283804	 1.078739	 0.387080	 26.951430	-4.137795	 48.147950	-66.160370	-147.864700	 4.365138	-62.331730	 4.237018	 64.694000	 70.757020	-77.953000	-2.385833	 28.452750	 0.000004	-21.362150	-74.213200	 168.545300	-14.020520	-64.311450	-8.009141	-32.447010	 72.140590	 59.018310	 2.384659	 28.388700	-0.000001	-36.960300	 12.858540	 1.351004	-2.573691	 20.038200	 3.227205	 2.699897	-3.378625	 0.029809	-94.675080	 74.619950	 160.443100	 3.401051	 4.252231	-50.672260	 18.751330	-6.189873	-13.233700	-39.983910	-17.333450	-27.217920	-2.027600	 6.559038	 9.033609	-5.188889	 0.308190	 3.541030	-5.234859	 0.342567	 0.430617	-1.404164	-6.396363	-2.244323	 3.568547	-2.503423	-1.745678	 95.249530	 66.981210	-163.072600	-14.175750	 11.815250	 53.901220	-23.541460	-19.418200	 48.833830	 20.347420	-15.597310	 21.722270	 1.803333	 3.979147	-15.098590	 4.898592	 3.004813	-9.310344	 5.224449	 0.395017	 2.014677
-0.014289	 0.275971	 1.103565	 0.731995	 24.740740	-3.361464	 42.463560	-62.075240	-154.322900	 4.365312	-58.457410	 4.092312	 60.574590	 71.027240	-72.967460	-2.385833	 28.452750	 0.000004	-23.980500	-68.524500	 167.861500	-11.691090	-60.312890	-5.691821	-32.152740	 72.294580	 56.881180	 2.384659	 28.388700	-0.000001	-41.078110	 12.011470	 1.038929	-2.515721	 20.381000	 2.754272	 2.949403	-5.784659	-0.206534	-93.294120	 76.462910	 161.906400	 5.584475	 8.795178	-52.783270	 22.709200	-7.800192	-14.465400	-40.251990	-17.431790	-29.205410	-2.027600	 6.559038	 9.033609	-5.188889	 0.308190	 3.541030	-5.234859	 0.342567	 0.430617	-1.667748	-13.524600	-2.022400	 3.817776	 4.129762	-2.107450	 94.158070	 69.029830	-164.316200	-16.723560	 15.371420	 53.084990	-23.876710	-24.089380	 54.261100	 20.504320	-16.093200	 22.358940	 1.803333	 3.979147	-15.098590	 4.898592	 3.004813	-9.310344	 5.224449	 0.395017	 2.014677
-0.012243	 0.265066	 1.127827	 1.468053	 22.968720	-2.799108	 38.520850	-57.927600	-158.825200	 4.300798	-54.366720	 3.837015	 55.893460	 71.208560	-67.272450	-2.385833	 28.452750	 0.000004	-26.043060	-63.135760	 167.880900	-9.496186	-56.187420	-3.616323	-30.587940	 72.310650	 53.345930	 2.384659	 28.388700	-0.000001	-42.408570	 10.543170	 0.613364	-2.416387	 20.305950	 2.217289	 3.163322	-8.139757	-0.481325	-94.176610	 74.524990	 164.083700	 7.679523	 10.006510	-53.083190	 26.160840	-9.225354	-15.373420	-38.942450	-17.025060	-30.322070	-2.027600	 6.559038	 9.033609	-5.188889	 0.308190	 3.541030	-5.234859	 0.342567	 0.430617	-1.733189	-14.959420	-0.990639	 4.112672	 5.502188	-2.626749	 93.907780	 68.506770	-165.804800	-18.781920	 17.327530	 50.343510	-23.097850	-28.375790	 59.890580	 19.967230	-15.832220	 22.555710	 1.803333	 3.979147	-15.098590	 4.898592	 3.004813	-9.310344	 5.224449	 0.395017	 2.014677
-0.011790	 0.251176	 1.152567	 2.200069	 20.916060	-1.942423	 34.751770	-53.321140	-163.504300	 4.134425	-50.203690	 3.499634	 50.062650	 71.486210	-60.209200	-2.385833	 28.452750	 0.000004	-28.006340	-56.822600	 168.157100	-7.396625	-51.656520	-1.765307	-29.260090	 72.573450	 49.640180	 2.384659	 28.388700	-0.000001	-40.734840	 8.756844	 0.281399	-2.156322	 19.762020	 1.577368	 3.314981	-10.546200	-0.661495	-94.730330	 72.384610	 166.217800	 10.194930	 10.678120	-53.034520	 29.425850	-10.500520	-16.064210	-36.922780	-16.581420	-29.553510	-2.027600	 6.559038	 9.033609	-5.188889	 0.308190	 3.541030	-5.234859	 0.342567	 0.430617	-1.842152	-15.166000	-0.764671	 4.441825	 6.039725	-2.524688	 93.983600	 65.583120	-167.979100	-21.012940	 17.742160	 47.938850	-21.878100	-32.096110	 64.870190	 18.852540	-14.907390	 22.245030	 1.803333	 3.979147	-15.098590	 4.898592	 3.004813	-9.310344	 5.224449	 0.395017	 2.014677
-0.012228	 0.237343	 1.169221	 2.759612	 18.686690	-0.979169	 32.166110	-49.372680	-167.425400	 3.939428	-47.651960	 3.222168	 46.688390	 72.222430	-55.513440	-2.385833	 28.452750	 0.000004	-29.291970	-51.125010	 168.734500	-5.629613	-48.407940	-0.361485	-28.838930	 73.538960	 46.966460	 2.384659	 28.388700	-0.000001	-36.409240	 7.381916	-0.061909	-2.065449	 18.946880	 0.970299	 3.465583	-12.014880	-0.739186	-94.795730	 70.963930	 167.996000	 11.956290	 11.299900	-53.152950	 31.683540	-11.246730	-16.422500	-35.176340	-16.038440	-28.050890	-2.027600	 6.559038	 9.033609	-5.188889	 0.308190	 3.541030	-5.234859	 0.342567	 0.430617	-1.866401	-14.442870	-0.633741	 4.630215	 5.903875	-2.544578	 93.659320	 64.349130	-169.574700	-23.109250	 19.217740	 47.603700	-21.436410	-34.428180	 67.325490	 18.031660	-14.324050	 21.838610	 1.803333	 3.979147	-15.098590	 4.898592	 3.004813	-9.310344	 5.224449	 0.395017	 2.014677
-0.011579	 0.219785	 1.183087	 2.918415	 15.346150	-0.457399	 30.822110	-44.036830	-170.909200	 3.438666	-45.539070	 2.753608	 43.424670	 73.731640	-50.468470	-2.385833	 28.452750	 0.000004	-29.240570	-44.979820	 170.943300	-4.027465	-45.778710	 0.801850	-26.221430	 74.834710	 41.813420	 2.384659	 28.388700	-0.000001	-29.559970	 6.464612	-0.102112	-2.075249	 17.964060	 0.799585	 3.632339	-12.287620	-0.635291	-94.553160	 70.293420	 169.631000	 12.922620	 11.878080	-53.788940	 33.255210	-11.562990	-16.561320	-33.698040	-15.466590	-27.718900	-2.027600	 6.559038	 9.033609	-5.188889	 0.308190	 3.541030	-5.234859	 0.342567	 0.430617	-1.929502	-12.824400	-0.952647	 4.756327	 5.066966	-2.387461	 93.291770	 63.417000	-170.955600	-24.567830	 20.448870	 46.879470	-20.433530	-36.118290	 70.146910	 17.249640	-13.395590	 21.768930	 1.803333	 3.979147	-15.098590	 4.898592	 3.004813	-9.310344	 5.224449	 0.395017	 2.014677
-0.010381	 0.200615	 1.194575	 3.063515	 12.087020	-0.440884	 30.072650	-38.591690	-173.502400	 2.922197	-43.410380	 2.295821	 38.340250	 75.023630	-43.654420	-2.385833	 28.452750	 0.000004	-28.800640	-39.545280	 173.637400	-2.613824	-43.576660	 1.746274	-21.707610	 75.954450	 34.914420	 2.384659	 28.388700	-0.000001	-20.712860	 5.666323	 0.020860	-2.182343	 16.904190	 0.928653	 3.723774	-12.293270	-0.287332	-94.228710	 69.998820	 171.070900	 13.486320	 12.363420	-54.520060	 34.072120	-11.418370	-16.490120	-32.422600	-14.971850	-27.196610	-2.027600	 6.559038	 9.033609	-5.188889	 0.308190	 3.541030	-5.234859	 0.342567	 0.430617	-2.077627	-10.883610	-1.499285	 4.886042	 3.875911	-2.152559	 92.882540	 62.632580	-172.338800	-25.829010	 21.615800	 46.596100	-19.247320	-36.574500	 72.388960	 17.049210	-13.534050	 21.979360	 1.803333	 3.979147	-15.098590	 4.898592	 3.004813	-9.310344	 5.224449	 0.395017	 2.014677
-0.010863	 0.184546	 1.206199	 2.860634	 11.008230	-0.053717	 29.913310	-35.604660	-174.962100	 2.777960	-40.825840	 2.089683	 34.037750	 75.264340	-38.432120	-2.385833	 28.452750	 0.000004	-28.525770	-35.942110	 174.394500	-1.608829	-40.447360	 2.296604	-18.634520	 75.703370	 30.383500	 2.384659	 28.388700	-0.000001	-10.428360	 4.288696	 0.051042	-2.048979	 14.895200	 0.630368	 3.958627	-12.556100	 0.101940	-93.951420	 69.793950	 172.213300	 13.971890	 13.074920	-54.794030	 34.137310	-10.818300	-16.201930	-31.340000	-14.053800	-27.087450	-2.027600	 6.559038	 9.033609	-5.188889	 0.308190	 3.541030	-5.234859	 0.342567	 0.430617	-2.272345	-9.359049	-1.920037	 4.938757	 3.317567	-2.135823	 92.433780	 62.371070	-173.511700	-27.281090	 23.094220	 46.974940	-18.502940	-36.422770	 73.858510	 16.536750	-13.343970	 21.837240	 1.803333	 3.979147	-15.098590	 4.898592	 3.004813	-9.310344	 5.224449	 0.395017	 2.014677
